# This file uses centimeters as units for non-parametric coordinates.

mtllib puroto_paa.mtl
g default
v -1.179529 -0.500000 3.105644
v -0.553735 -0.500000 3.105644
v 0.072060 -0.500000 3.105644
v 0.697854 -0.500000 3.105644
v 1.323648 -0.500000 3.105644
v -1.179529 0.500000 3.105644
v -0.553735 0.500000 3.105644
v 0.072060 0.500000 3.105644
v 0.697854 0.500000 3.105644
v 1.323648 0.500000 3.105644
v -1.813377 0.500000 0.000000
v -0.813378 0.500000 0.000000
v 0.186622 0.500000 0.000000
v 1.000000 0.500000 0.000000
v 2.000000 0.500000 0.000000
v -1.925696 0.500000 -0.675061
v 1.925696 0.500000 -1.755235
v -1.925696 -0.500000 -0.675061
v 1.925696 -0.500000 -1.755235
v -1.813377 -0.500000 0.000000
v -0.813378 -0.500000 0.000000
v 0.186622 -0.500000 0.000000
v 1.000000 -0.500000 0.000000
v 2.000000 -0.500000 0.000000
v -1.010986 0.500000 -0.931603
v -0.914710 0.500000 -0.958605
v -1.010986 -0.500000 -0.931603
v -0.914710 -0.500000 -0.958605
v -0.048138 0.500000 -1.201647
v 0.048138 0.500000 -1.228649
v -0.048138 -0.500000 -1.201647
v 0.048138 -0.500000 -1.228649
v 0.914710 0.500000 -1.471691
v 1.010986 0.500000 -1.498692
v 0.914710 -0.500000 -1.471691
v 1.010986 -0.500000 -1.498692
v -2.794861 0.500000 -4.988629
v -1.881292 0.500000 -5.249206
v -1.881292 -0.500000 -5.249206
v -2.794861 -0.500000 -4.988629
v -1.279118 -0.500000 -5.420964
v -1.279118 0.500000 -5.420964
v -0.413626 0.500000 -5.667828
v -0.413626 -0.500000 -5.667828
v -0.213153 -0.500000 -5.725008
v -0.213153 0.500000 -5.725008
v 0.652338 0.500000 -5.971872
v 0.652338 -0.500000 -5.971872
v 1.393432 -0.404633 -6.139738
v 1.393432 0.404633 -6.139738
v 2.307001 0.404633 -6.400315
v 2.307001 -0.404633 -6.400315
v 3.227455 -0.500000 0.000000
v 1.564663 -0.500000 3.105644
v 3.227455 0.500000 0.000000
v 1.564663 0.500000 3.105644
v 3.044082 -0.500000 -2.408501
v 3.044082 0.500000 -2.408501
v 4.271538 0.500000 -2.408501
v 4.271538 -0.500000 -2.408501
vt 0.310383 0.594018
vt 0.309084 0.572235
vt 0.300700 0.543959
vt 0.291676 0.515785
vt 0.275303 0.495517
vt 0.374310 0.610468
vt 0.361722 0.568295
vt 0.351128 0.526685
vt 0.344642 0.484327
vt 0.342425 0.440420
vt 0.574160 0.615608
vt 0.759461 0.364544
vt 0.916013 0.561308
vt 0.916577 0.525408
vt 0.919406 0.489739
vt 0.921617 0.454293
vt 0.925053 0.418659
vt 0.056252 0.317479
vt 0.105682 0.391747
vt 0.073268 0.257984
vt 0.201689 0.269604
vt 0.243649 0.811389
vt 0.250857 0.769262
vt 0.296019 0.822579
vt 0.308736 0.787683
vt 0.551277 0.551789
vt 0.629235 0.627332
vt 0.728862 0.590486
vt 0.528866 0.486344
vt 0.728840 0.529789
vt 0.521450 0.432473
vt 0.514324 0.368954
vt 0.613869 0.319027
vt 0.736139 0.470150
vt 0.744112 0.422258
vt 0.682584 0.597346
vt 0.678350 0.339894
vt 0.609418 0.559353
vt 0.671103 0.529964
vt 0.593599 0.477775
vt 0.660586 0.465492
vt 0.600042 0.392494
vt 0.664332 0.399309
vt 0.609672 0.553711
vt 0.672857 0.534893
vt 0.594260 0.472047
vt 0.661435 0.470452
vt 0.601646 0.386628
vt 0.665033 0.404912
vt 0.623931 0.605073
vt 0.615819 0.557244
vt 0.651676 0.570432
vt 0.666126 0.605941
vt 0.650868 0.537231
vt 0.604163 0.517048
vt 0.608666 0.476974
vt 0.630619 0.509929
vt 0.637807 0.466382
vt 0.598387 0.437763
vt 0.611002 0.394666
vt 0.624109 0.433732
vt 0.633905 0.392026
vt 0.605717 0.364149
vt 0.624053 0.322333
vt 0.628419 0.355908
vt 0.278010 0.483117
vt 0.177777 0.376659
vt 0.200922 0.343966
vt 0.328677 0.443636
vt 0.164256 0.329421
vt 0.200204 0.298812
vt 0.189378 0.355167
vt 0.187046 0.321104
vn 0.000000 0.000000 1.000000
vn 0.000000 0.000000 1.000000
vn 0.000000 0.000000 1.000000
vn 0.000000 0.000000 1.000000
vn 0.000000 0.000000 1.000000
vn 0.000000 0.000000 1.000000
vn 0.000000 0.000000 1.000000
vn 0.000000 0.000000 1.000000
vn 0.000000 0.000000 1.000000
vn 0.000000 0.000000 1.000000
vn 0.000000 1.000000 -0.000000
vn 0.000000 1.000000 0.000000
vn 0.000000 1.000000 0.000000
vn 0.000000 1.000000 0.000000
vn 0.000000 1.000000 -0.000000
vn 0.000000 1.000000 0.000000
vn 0.000000 1.000000 -0.000000
vn 0.000000 1.000000 -0.000000
vn 0.000000 1.000000 0.000000
vn 0.000000 1.000000 0.000000
vn 0.000000 1.000000 0.000000
vn 0.000000 1.000000 0.000000
vn 0.000000 1.000000 0.000000
vn 0.000000 1.000000 0.000000
vn 0.000000 1.000000 -0.000000
vn 0.000000 1.000000 -0.000000
vn 0.000000 1.000000 0.000000
vn 0.000000 1.000000 0.000000
vn -0.274289 0.000000 -0.961647
vn -0.274290 0.000000 -0.961647
vn -0.274290 0.000000 -0.961647
vn -0.274290 0.000000 -0.961647
vn -0.274290 0.000000 -0.961647
vn -0.274290 0.000000 -0.961647
vn -0.274290 0.000000 -0.961647
vn -0.274291 0.000000 -0.961647
vn -0.274290 0.000000 -0.961647
vn -0.274290 0.000000 -0.961647
vn -0.274290 0.000000 -0.961647
vn -0.274291 0.000000 -0.961647
vn -0.274291 0.000000 -0.961647
vn -0.274290 0.000000 -0.961647
vn -0.274290 0.000000 -0.961647
vn -0.274289 0.000000 -0.961647
vn 0.000000 -1.000000 0.000000
vn 0.000000 -1.000000 0.000000
vn 0.000000 -1.000000 0.000000
vn 0.000000 -1.000000 0.000000
vn 0.000000 -1.000000 0.000000
vn 0.000000 -1.000000 -0.000000
vn 0.000000 -1.000000 -0.000000
vn 0.000000 -1.000000 -0.000000
vn 0.000000 -1.000000 -0.000000
vn 0.000000 -1.000000 -0.000000
vn 0.000000 -1.000000 0.000000
vn 0.000000 -1.000000 0.000000
vn 0.999105 0.000000 -0.042295
vn 0.999105 0.000000 -0.042295
vn 0.999105 0.000000 -0.042295
vn 0.999105 0.000000 -0.042295
vn 0.881592 0.000000 0.472013
vn 0.881592 0.000000 0.472013
vn 0.881592 0.000000 0.472013
vn 0.881592 0.000000 0.472013
vn -0.986439 0.000000 0.164127
vn -0.981075 0.000000 0.193627
vn -0.986439 0.000000 0.164127
vn -0.981075 0.000000 0.193627
vn -0.979801 0.000000 0.199973
vn -0.979801 0.000000 0.199973
vn 0.000000 -1.000000 0.000000
vn 0.000000 -1.000000 0.000000
vn 0.000000 -1.000000 -0.000000
vn 0.000000 -1.000000 -0.000000
vn 0.000000 -1.000000 0.000000
vn 0.000000 -1.000000 0.000000
vn -0.270044 0.000000 -0.962848
vn -0.270044 0.000000 -0.962848
vn -0.270044 0.000000 -0.962848
vn -0.270044 0.000000 -0.962848
vn -0.270043 0.000000 -0.962848
vn -0.270043 0.000000 -0.962848
vn -0.270043 0.000000 -0.962848
vn -0.270043 0.000000 -0.962848
vn -0.270043 0.000000 -0.962848
vn -0.270043 0.000000 -0.962848
vn -0.270043 0.000000 -0.962848
vn -0.270043 0.000000 -0.962848
vn 0.000000 1.000000 0.000000
vn 0.000000 1.000000 0.000000
vn 0.000000 1.000000 0.000000
vn 0.000000 1.000000 0.000000
vn 0.980283 0.000000 -0.197597
vn 0.980283 0.000000 -0.197597
vn 0.980283 0.000000 -0.197597
vn 0.980283 0.000000 -0.197597
vn 0.000000 -1.000000 0.000000
vn 0.000000 -1.000000 0.000000
vn 0.000000 -1.000000 0.000000
vn 0.000000 -1.000000 0.000000
vn -0.980298 0.000000 0.197526
vn -0.980298 0.000000 0.197526
vn -0.980298 0.000000 0.197526
vn -0.980298 0.000000 0.197526
vn -0.996682 0.000000 0.081392
vn -0.996682 0.000000 0.081392
vn -0.996682 0.000000 0.081392
vn -0.996682 0.000000 0.081392
vn 0.000000 1.000000 0.000000
vn 0.000000 1.000000 0.000000
vn 0.000000 1.000000 0.000000
vn 0.000000 1.000000 0.000000
vn 0.996668 0.000000 -0.081562
vn 0.996668 0.000000 -0.081562
vn 0.996668 0.000000 -0.081562
vn 0.996668 0.000000 -0.081562
vn 0.000000 -1.000000 0.000000
vn 0.000000 -1.000000 -0.000000
vn 0.000000 -1.000000 0.000000
vn 0.000000 -1.000000 -0.000000
vn -0.998316 0.000000 0.058014
vn -0.998316 0.000000 0.058014
vn -0.998316 0.000000 0.058014
vn -0.998316 0.000000 0.058014
vn 0.000000 1.000000 0.000000
vn 0.000000 1.000000 0.000000
vn 0.000000 1.000000 0.000000
vn 0.000000 1.000000 0.000000
vn 0.998305 0.000000 -0.058204
vn 0.998305 0.000000 -0.058204
vn 0.998305 0.000000 -0.058204
vn 0.998305 0.000000 -0.058204
vn 0.000000 -1.000000 0.000000
vn 0.000000 -1.000000 0.000000
vn 0.000000 -1.000000 0.000000
vn 0.000000 -1.000000 0.000000
vn -0.996622 0.000000 -0.082127
vn -0.996622 0.000000 -0.082127
vn -0.996622 0.000000 -0.082127
vn -0.996622 0.000000 -0.082127
vn -0.005898 0.999762 -0.021030
vn -0.005908 0.999761 -0.021028
vn -0.005985 0.999761 -0.021019
vn -0.005995 0.999761 -0.021018
vn 0.996648 0.000000 0.081813
vn 0.996648 0.000000 0.081813
vn 0.996648 0.000000 0.081813
vn 0.996648 0.000000 0.081813
vn -0.005898 -0.999762 -0.021030
vn -0.005985 -0.999761 -0.021019
vn -0.005908 -0.999761 -0.021028
vn -0.005995 -0.999761 -0.021018
vn 0.000000 -1.000000 0.000000
vn 0.000000 -1.000000 0.000000
vn 0.000000 -1.000000 0.000000
vn 0.000000 -1.000000 0.000000
vn 0.000000 0.000000 -1.000000
vn 0.000000 0.000000 -1.000000
vn 0.000000 0.000000 -1.000000
vn 0.000000 0.000000 -1.000000
vn 0.000000 1.000000 0.000000
vn 0.000000 1.000000 0.000000
vn 0.000000 1.000000 0.000000
vn 0.000000 1.000000 0.000000
vn 0.000000 0.000000 1.000000
vn 0.000000 0.000000 1.000000
vn 0.000000 0.000000 1.000000
vn 0.000000 0.000000 1.000000
vn -0.917500 0.000000 -0.397735
vn -0.917500 0.000000 -0.397735
vn -0.917500 0.000000 -0.397735
vn -0.917500 0.000000 -0.397735
vn 0.000000 1.000000 -0.000000
vn 0.000000 1.000000 -0.000000
vn 0.000000 1.000000 -0.000000
vn 0.000000 1.000000 0.000000
vn 0.917500 0.000000 0.397735
vn 0.917500 0.000000 0.397735
vn 0.917500 0.000000 0.397735
vn 0.917500 0.000000 0.397735
vn 0.000000 -1.000000 -0.000000
vn 0.000000 -1.000000 -0.000000
vn 0.000000 -1.000000 -0.000000
vn 0.000000 -1.000000 0.000000
s 1
g puroto_paa_MDL
usemtl lambert5SG
f 1/1/1 2/2/2 6/6/3
f 6/6/3 2/2/2 7/7/4
f 2/2/2 3/3/5 7/7/4
f 7/7/4 3/3/5 8/8/6
f 3/3/5 4/4/7 8/8/6
f 8/8/6 4/4/7 9/9/8
f 4/4/7 5/5/9 9/9/8
f 9/9/8 5/5/9 10/10/10
s 2
f 7/7/11 12/26/12 6/6/13
f 6/6/13 12/26/12 11/11/14
f 8/8/15 13/29/16 7/7/11
f 7/7/11 13/29/16 12/26/12
f 8/8/15 9/9/17 13/29/16
f 13/29/16 9/9/17 14/31/18
f 9/9/17 10/10/19 14/31/18
f 14/31/18 10/10/19 15/32/20
f 12/26/12 25/38/21 11/11/14
f 11/11/14 25/38/21 16/27/22
f 13/29/16 29/40/23 12/26/12
f 12/26/12 29/40/23 26/44/24
f 13/29/16 14/31/18 30/46/25
f 30/46/25 14/31/18 33/42/26
f 14/31/18 15/32/20 34/48/27
f 34/48/27 15/32/20 17/33/28
s 4
f 37/50/29 38/51/30 40/53/31
f 40/53/31 38/51/30 39/52/32
s 5
f 41/54/33 42/55/34 44/57/35
f 44/57/35 42/55/34 43/56/36
s 6
f 45/58/37 46/59/38 48/61/39
f 48/61/39 46/59/38 47/60/40
s 7
f 49/62/41 50/63/42 52/65/43
f 52/65/43 50/63/42 51/64/44
s 8
f 18/36/45 27/45/46 20/28/47
f 20/28/47 27/45/46 21/30/48
f 20/28/47 21/30/48 1/13/49
f 1/13/49 21/30/48 2/14/50
f 21/30/48 22/34/51 2/14/50
f 2/14/50 22/34/51 3/15/52
f 23/35/53 4/16/54 22/34/51
f 22/34/51 4/16/54 3/15/52
f 24/12/55 5/17/56 23/35/53
f 23/35/53 5/17/56 4/16/54
s 10
f 24/19/57 19/18/58 15/21/59
f 15/21/59 19/18/58 17/20/60
s 11
f 54/66/61 53/67/62 56/69/63
f 56/69/63 53/67/62 55/68/64
s 12
f 18/22/65 20/23/66 16/24/67
f 16/24/67 20/23/66 11/25/68
f 20/23/66 1/1/69 11/25/68
f 11/25/68 1/1/69 6/6/70
s 8
f 28/39/71 31/47/72 21/30/48
f 21/30/48 31/47/72 22/34/51
f 22/34/51 32/41/73 23/35/53
f 23/35/53 32/41/73 35/49/74
f 23/35/53 36/43/75 24/12/55
f 24/12/55 36/43/75 19/37/76
s 13
f 25/38/77 26/44/78 27/45/79
f 27/45/79 26/44/78 28/39/80
s 14
f 29/40/81 30/46/82 31/47/83
f 31/47/83 30/46/82 32/41/84
s 15
f 33/42/85 34/48/86 35/49/87
f 35/49/87 34/48/86 36/43/88
s 2
f 25/38/21 12/26/12 26/44/24
s 8
f 21/30/48 27/45/46 28/39/71
s 2
f 29/40/23 13/29/16 30/46/25
s 8
f 22/34/51 31/47/72 32/41/73
s 2
f 33/42/26 14/31/18 34/48/27
s 8
f 23/35/53 35/49/74 36/43/75
s 16
f 16/27/89 25/38/90 37/50/91
f 37/50/91 25/38/90 38/51/92
s 17
f 25/38/93 27/45/94 38/51/95
f 38/51/95 27/45/94 39/52/96
s 18
f 18/36/97 40/53/98 27/45/99
f 27/45/99 40/53/98 39/52/100
s 19
f 18/36/101 16/27/102 40/53/103
f 40/53/103 16/27/102 37/50/104
s 20
f 28/39/105 26/44/106 41/54/107
f 41/54/107 26/44/106 42/55/108
s 21
f 26/44/109 29/40/110 42/55/111
f 42/55/111 29/40/110 43/56/112
s 22
f 29/40/113 31/47/114 43/56/115
f 43/56/115 31/47/114 44/57/116
s 23
f 28/39/117 41/54/118 31/47/119
f 31/47/119 41/54/118 44/57/120
s 24
f 32/41/121 30/46/122 45/58/123
f 45/58/123 30/46/122 46/59/124
s 25
f 30/46/125 33/42/126 46/59/127
f 46/59/127 33/42/126 47/60/128
s 26
f 33/42/129 35/49/130 47/60/131
f 47/60/131 35/49/130 48/61/132
s 27
f 32/41/133 45/58/134 35/49/135
f 35/49/135 45/58/134 48/61/136
s 28
f 36/43/137 34/48/138 49/62/139
f 49/62/139 34/48/138 50/63/140
s 29
f 34/48/141 17/33/142 50/63/143
f 50/63/143 17/33/142 51/64/144
s 30
f 17/33/145 19/37/146 51/64/147
f 51/64/147 19/37/146 52/65/148
s 31
f 36/43/149 49/62/150 19/37/151
f 19/37/151 49/62/150 52/65/152
s 32
f 5/5/153 24/19/154 54/66/155
f 54/66/155 24/19/154 53/67/156
s 33
f 57/70/157 58/71/158 60/73/159
f 60/73/159 58/71/158 59/72/160
s 34
f 10/10/161 56/69/162 15/21/163
f 15/21/163 56/69/162 55/68/164
s 35
f 10/10/165 5/5/166 56/69/167
f 56/69/167 5/5/166 54/66/168
s 36
f 24/19/169 15/21/170 57/70/171
f 57/70/171 15/21/170 58/71/172
s 37
f 15/21/173 55/68/174 58/71/175
f 58/71/175 55/68/174 59/72/176
s 38
f 55/68/177 53/67/178 59/72/179
f 59/72/179 53/67/178 60/73/180
s 39
f 24/19/181 57/70/182 53/67/183
f 53/67/183 57/70/182 60/73/184
